<svg width="48" height="48" viewBox="0 0 48 48" fill="none" xmlns="http://www.w3.org/2000/svg">
<circle cx="24" cy="24" r="24" fill="currentColor"/>
<g clip-path="url(#clip0_374_39095)">
<path fill-rule="evenodd" clip-rule="evenodd" d="M32.7696 13.9067C33.0991 13.768 33.4597 13.7202 33.814 13.7682C34.1682 13.8162 34.5031 13.9582 34.7838 14.1796C35.0646 14.4009 35.2808 14.6935 35.4101 15.0268C35.5394 15.3601 35.5769 15.7219 35.5189 16.0747L32.4949 34.4173C32.2016 36.1867 30.2603 37.2013 28.6376 36.32C27.2803 35.5827 25.2643 34.4467 23.4509 33.2613C22.5443 32.668 19.7669 30.768 20.1083 29.416C20.4016 28.26 25.0683 23.916 27.7349 21.3333C28.7816 20.3187 28.3043 19.7333 27.0683 20.6667C23.9976 22.984 19.0709 26.508 17.4416 27.5C16.0043 28.3747 15.2549 28.524 14.3589 28.3747C12.7243 28.1027 11.2083 27.6813 9.97092 27.168C8.29892 26.4747 8.38025 24.176 9.96959 23.5067L32.7696 13.9067Z" fill="#3434E8"/>
</g>
<defs>
<clipPath id="clip0_374_39095">
<rect width="32" height="32" fill="white" transform="translate(6.40039 8)"/>
</clipPath>
</defs>
</svg>
