<?xml version="1.0" standalone="no"?>
<!DOCTYPE svg PUBLIC "-//W3C//DTD SVG 20010904//EN"
 "http://www.w3.org/TR/2001/REC-SVG-20010904/DTD/svg10.dtd">
<svg version="1.0" xmlns="http://www.w3.org/2000/svg"
 width="96.000000pt" height="96.000000pt" viewBox="0 0 96.000000 96.000000"
 preserveAspectRatio="xMidYMid meet">

<g transform="translate(0.000000,96.000000) scale(0.100000,-0.100000)"
fill="#000000" stroke="none">
<path d="M195 830 c-11 -4 -31 -20 -45 -35 l-25 -27 0 -289 0 -289 33 -32 32
-33 205 -3 c233 -4 264 3 293 65 30 64 -27 100 -68 44 l-21 -31 -188 0 c-132
0 -191 4 -199 12 -17 17 -17 519 0 536 8 8 67 12 199 12 l188 0 21 -31 c41
-56 98 -20 68 44 -28 60 -60 67 -280 66 -106 0 -202 -4 -213 -9z"/>
<path d="M652 628 c-20 -20 -14 -42 19 -74 l30 -29 -192 -5 c-169 -4 -193 -7
-203 -22 -8 -13 -8 -23 0 -35 10 -16 34 -19 203 -23 l192 -5 -30 -29 c-17 -17
-31 -37 -31 -46 0 -20 19 -40 39 -40 20 0 161 140 161 160 0 20 -141 160 -161
160 -8 0 -20 -5 -27 -12z"/>
</g>
</svg>
