<?xml version="1.0" standalone="no"?>
<!DOCTYPE svg PUBLIC "-//W3C//DTD SVG 20010904//EN"
 "http://www.w3.org/TR/2001/REC-SVG-20010904/DTD/svg10.dtd">
<svg version="1.0" xmlns="http://www.w3.org/2000/svg"
 width="96.000000pt" height="96.000000pt" viewBox="0 0 96.000000 96.000000"
 preserveAspectRatio="xMidYMid meet">

<g transform="translate(0.000000,96.000000) scale(0.100000,-0.100000)"
fill="#000000" stroke="none">
<path d="M80 773 c0 -25 19 -40 192 -148 106 -66 197 -121 203 -123 7 -2 100
52 209 119 180 112 196 124 196 151 l0 28 -400 0 -400 0 0 -27z"/>
<path d="M80 406 l0 -246 400 0 400 0 0 245 0 245 -132 -82 c-73 -44 -161 -98
-196 -120 -34 -21 -66 -38 -71 -38 -5 0 -94 52 -198 116 -103 64 -191 118
-195 121 -5 2 -8 -106 -8 -241z"/>
</g>
</svg>
